<?xml version="1.0" encoding="us-ascii" standalone="no"?><svg xmlns="http://www.w3.org/2000/svg" xmlns:xlink="http://www.w3.org/1999/xlink" contentStyleType="text/css" height="366px" preserveAspectRatio="none" style="width:3043px;height:366px;background:#FFFFFF;" version="1.1" viewBox="0 0 3043 366" width="3043px" zoomAndPan="magnify"><defs/><g><!--class association--><g id="elem_association"><rect codeLine="30" fill="#FFFFFF" height="80.5938" id="association" rx="2.5" ry="2.5" style="stroke:#000000;stroke-width:0.5;" width="229" x="1168" y="15"/><ellipse cx="1239.25" cy="31" fill="#ADD1B2" rx="11" ry="11" style="stroke:#181818;stroke-width:1.0;"/><path d="M1243.3594,37 L1235.6406,37 L1235.6406,24.6094 L1243.3594,24.6094 L1243.3594,26.7656 L1238.0938,26.7656 L1238.0938,29.4375 L1242.8594,29.4375 L1242.8594,31.5938 L1238.0938,31.5938 L1238.0938,34.8438 L1243.3594,34.8438 L1243.3594,37 Z " fill="#000000"/><text fill="#000000" font-family="sans-serif" font-size="14" lengthAdjust="spacing" textLength="78" x="1259.75" y="35.8467">association</text><line style="stroke:#000000;stroke-width:0.5;" x1="1169" x2="1396" y1="47" y2="47"/><ellipse cx="1179" cy="60.6484" fill="none" rx="3" ry="3" style="stroke:#038048;stroke-width:1.0;"/><text fill="#000000" font-family="sans-serif" font-size="14" lengthAdjust="spacing" textLength="203" x="1188" y="63.9951">association_id : INTEGER [PK]</text><text fill="#000000" font-family="sans-serif" font-size="14" lengthAdjust="spacing" textLength="79" x="1188" y="80.292">type : TEXT</text><line style="stroke:#000000;stroke-width:0.5;" x1="1169" x2="1396" y1="87.5938" y2="87.5938"/></g><!--class category--><g id="elem_category"><rect codeLine="35" fill="#FFFFFF" height="80.5938" id="category" rx="2.5" ry="2.5" style="stroke:#000000;stroke-width:0.5;" width="211" x="7" y="229.5"/><ellipse cx="78.25" cy="245.5" fill="#ADD1B2" rx="11" ry="11" style="stroke:#181818;stroke-width:1.0;"/><path d="M82.3594,251.5 L74.6406,251.5 L74.6406,239.1094 L82.3594,239.1094 L82.3594,241.2656 L77.0938,241.2656 L77.0938,243.9375 L81.8594,243.9375 L81.8594,246.0938 L77.0938,246.0938 L77.0938,249.3438 L82.3594,249.3438 L82.3594,251.5 Z " fill="#000000"/><text fill="#000000" font-family="sans-serif" font-size="14" lengthAdjust="spacing" textLength="60" x="98.75" y="250.3467">category</text><line style="stroke:#000000;stroke-width:0.5;" x1="8" x2="217" y1="261.5" y2="261.5"/><ellipse cx="18" cy="275.1484" fill="none" rx="3" ry="3" style="stroke:#038048;stroke-width:1.0;"/><text fill="#000000" font-family="sans-serif" font-size="14" lengthAdjust="spacing" textLength="185" x="27" y="278.4951">category_id : INTEGER [PK]</text><text fill="#000000" font-family="sans-serif" font-size="14" lengthAdjust="spacing" textLength="109" x="27" y="294.792">category : TEXT</text><line style="stroke:#000000;stroke-width:0.5;" x1="8" x2="217" y1="302.0938" y2="302.0938"/></g><!--class category_list--><g id="elem_category_list"><rect codeLine="40" fill="#FFFFFF" height="113.1875" id="category_list" rx="2.5" ry="2.5" style="stroke:#000000;stroke-width:0.5;" width="237" x="253" y="213.5"/><ellipse cx="324.25" cy="229.5" fill="#ADD1B2" rx="11" ry="11" style="stroke:#181818;stroke-width:1.0;"/><path d="M328.3594,235.5 L320.6406,235.5 L320.6406,223.1094 L328.3594,223.1094 L328.3594,225.2656 L323.0938,225.2656 L323.0938,227.9375 L327.8594,227.9375 L327.8594,230.0938 L323.0938,230.0938 L323.0938,233.3438 L328.3594,233.3438 L328.3594,235.5 Z " fill="#000000"/><text fill="#000000" font-family="sans-serif" font-size="14" lengthAdjust="spacing" textLength="86" x="344.75" y="234.3467">category_list</text><line style="stroke:#000000;stroke-width:0.5;" x1="254" x2="489" y1="245.5" y2="245.5"/><ellipse cx="264" cy="259.1484" fill="none" rx="3" ry="3" style="stroke:#038048;stroke-width:1.0;"/><text fill="#000000" font-family="sans-serif" font-size="14" lengthAdjust="spacing" textLength="211" x="273" y="262.4951">category_list_id : INTEGER [PK]</text><text fill="#000000" font-family="sans-serif" font-size="14" lengthAdjust="spacing" textLength="137" x="273" y="278.792">main : category [FK]</text><text fill="#000000" font-family="sans-serif" font-size="14" lengthAdjust="spacing" textLength="156" x="273" y="295.0889">second : category [FK]</text><text fill="#000000" font-family="sans-serif" font-size="14" lengthAdjust="spacing" textLength="135" x="273" y="311.3857">third : category [FK]</text><line style="stroke:#000000;stroke-width:0.5;" x1="254" x2="489" y1="318.6875" y2="318.6875"/></g><!--class company--><g id="elem_company"><rect codeLine="47" fill="#FFFFFF" height="178.375" id="company" rx="2.5" ry="2.5" style="stroke:#000000;stroke-width:0.5;" width="214" x="525.5" y="181"/><ellipse cx="596.75" cy="197" fill="#ADD1B2" rx="11" ry="11" style="stroke:#181818;stroke-width:1.0;"/><path d="M600.8594,203 L593.1406,203 L593.1406,190.6094 L600.8594,190.6094 L600.8594,192.7656 L595.5938,192.7656 L595.5938,195.4375 L600.3594,195.4375 L600.3594,197.5938 L595.5938,197.5938 L595.5938,200.8438 L600.8594,200.8438 L600.8594,203 Z " fill="#000000"/><text fill="#000000" font-family="sans-serif" font-size="14" lengthAdjust="spacing" textLength="63" x="617.25" y="201.8467">company</text><line style="stroke:#000000;stroke-width:0.5;" x1="526.5" x2="738.5" y1="213" y2="213"/><text fill="#000000" font-family="sans-serif" font-size="14" lengthAdjust="spacing" textLength="88" x="545.5" y="229.9951">name : TEXT</text><text fill="#000000" font-family="sans-serif" font-size="14" lengthAdjust="spacing" textLength="85" x="545.5" y="246.292">email : TEXT</text><text fill="#000000" font-family="sans-serif" font-size="14" lengthAdjust="spacing" textLength="45" x="545.5" y="262.5889">phone</text><ellipse cx="536.5" cy="275.5391" fill="none" rx="3" ry="3" style="stroke:#038048;stroke-width:1.0;"/><text fill="#000000" font-family="sans-serif" font-size="14" lengthAdjust="spacing" textLength="188" x="545.5" y="278.8857">company_id : INTEGER [PK]</text><text fill="#000000" font-family="sans-serif" font-size="14" lengthAdjust="spacing" textLength="178" x="545.5" y="295.1826">business_start : NUMERIC</text><text fill="#000000" font-family="sans-serif" font-size="14" lengthAdjust="spacing" textLength="174" x="545.5" y="311.4795">business_end : NUMERIC</text><text fill="#000000" font-family="sans-serif" font-size="14" lengthAdjust="spacing" textLength="178" x="545.5" y="327.7764">co_owned : company [FK]</text><text fill="#000000" font-family="sans-serif" font-size="14" lengthAdjust="spacing" textLength="180" x="545.5" y="344.0732">co_owned_two : NUMERIC</text><line style="stroke:#000000;stroke-width:0.5;" x1="526.5" x2="738.5" y1="351.375" y2="351.375"/></g><!--class device--><g id="elem_device"><rect codeLine="58" fill="#FFFFFF" height="178.375" id="device" rx="2.5" ry="2.5" style="stroke:#000000;stroke-width:0.5;" width="273" x="775" y="181"/><ellipse cx="884.75" cy="197" fill="#ADD1B2" rx="11" ry="11" style="stroke:#181818;stroke-width:1.0;"/><path d="M888.8594,203 L881.1406,203 L881.1406,190.6094 L888.8594,190.6094 L888.8594,192.7656 L883.5938,192.7656 L883.5938,195.4375 L888.3594,195.4375 L888.3594,197.5938 L883.5938,197.5938 L883.5938,200.8438 L888.8594,200.8438 L888.8594,203 Z " fill="#000000"/><text fill="#000000" font-family="sans-serif" font-size="14" lengthAdjust="spacing" textLength="45" x="905.25" y="201.8467">device</text><line style="stroke:#000000;stroke-width:0.5;" x1="776" x2="1047" y1="213" y2="213"/><ellipse cx="786" cy="226.6484" fill="none" rx="3" ry="3" style="stroke:#038048;stroke-width:1.0;"/><text fill="#000000" font-family="sans-serif" font-size="14" lengthAdjust="spacing" textLength="170" x="795" y="229.9951">device_id : INTEGER [PK]</text><text fill="#000000" font-family="sans-serif" font-size="14" lengthAdjust="spacing" textLength="149" x="795" y="246.292">model_id : model [FK]</text><text fill="#000000" font-family="sans-serif" font-size="14" lengthAdjust="spacing" textLength="247" x="795" y="262.5889">manufacturer_id : manufacturer [FK]</text><text fill="#000000" font-family="sans-serif" font-size="14" lengthAdjust="spacing" textLength="235" x="795" y="278.8857">category_list_id : category_list [FK]</text><text fill="#000000" font-family="sans-serif" font-size="14" lengthAdjust="spacing" textLength="135" x="795" y="295.1826">serial_id : serial [FK]</text><text fill="#000000" font-family="sans-serif" font-size="14" lengthAdjust="spacing" textLength="88" x="795" y="311.4795">name : TEXT</text><text fill="#000000" font-family="sans-serif" font-size="14" lengthAdjust="spacing" textLength="179" x="795" y="327.7764">warranty_id : warranty [FK]</text><text fill="#000000" font-family="sans-serif" font-size="14" lengthAdjust="spacing" textLength="171" x="795" y="344.0732">location_id : location [FK]</text><line style="stroke:#000000;stroke-width:0.5;" x1="776" x2="1047" y1="351.375" y2="351.375"/></g><!--class device_type--><g id="elem_device_type"><rect codeLine="69" fill="#FFFFFF" height="96.8906" id="device_type" rx="2.5" ry="2.5" style="stroke:#000000;stroke-width:0.5;" width="233" x="1432" y="7"/><ellipse cx="1503.25" cy="23" fill="#ADD1B2" rx="11" ry="11" style="stroke:#181818;stroke-width:1.0;"/><path d="M1507.3594,29 L1499.6406,29 L1499.6406,16.6094 L1507.3594,16.6094 L1507.3594,18.7656 L1502.0938,18.7656 L1502.0938,21.4375 L1506.8594,21.4375 L1506.8594,23.5938 L1502.0938,23.5938 L1502.0938,26.8438 L1507.3594,26.8438 L1507.3594,29 Z " fill="#000000"/><text fill="#000000" font-family="sans-serif" font-size="14" lengthAdjust="spacing" textLength="82" x="1523.75" y="27.8467">device_type</text><line style="stroke:#000000;stroke-width:0.5;" x1="1433" x2="1664" y1="39" y2="39"/><ellipse cx="1443" cy="52.6484" fill="none" rx="3" ry="3" style="stroke:#038048;stroke-width:1.0;"/><text fill="#000000" font-family="sans-serif" font-size="14" lengthAdjust="spacing" textLength="207" x="1452" y="55.9951">device_type_id : INTEGER [PK]</text><text fill="#000000" font-family="sans-serif" font-size="14" lengthAdjust="spacing" textLength="79" x="1452" y="72.292">category_id</text><text fill="#000000" font-family="sans-serif" font-size="14" lengthAdjust="spacing" textLength="131" x="1452" y="88.5889">device_type : TEXT</text><line style="stroke:#000000;stroke-width:0.5;" x1="1433" x2="1664" y1="95.8906" y2="95.8906"/></g><!--class did--><g id="elem_did"><rect codeLine="75" fill="#FFFFFF" height="96.8906" id="did" rx="2.5" ry="2.5" style="stroke:#000000;stroke-width:0.5;" width="172" x="1700.5" y="7"/><ellipse cx="1771.75" cy="23" fill="#ADD1B2" rx="11" ry="11" style="stroke:#181818;stroke-width:1.0;"/><path d="M1775.8594,29 L1768.1406,29 L1768.1406,16.6094 L1775.8594,16.6094 L1775.8594,18.7656 L1770.5938,18.7656 L1770.5938,21.4375 L1775.3594,21.4375 L1775.3594,23.5938 L1770.5938,23.5938 L1770.5938,26.8438 L1775.8594,26.8438 L1775.8594,29 Z " fill="#000000"/><text fill="#000000" font-family="sans-serif" font-size="14" lengthAdjust="spacing" textLength="21" x="1792.25" y="27.8467">did</text><line style="stroke:#000000;stroke-width:0.5;" x1="1701.5" x2="1871.5" y1="39" y2="39"/><ellipse cx="1711.5" cy="52.6484" fill="none" rx="3" ry="3" style="stroke:#038048;stroke-width:1.0;"/><text fill="#000000" font-family="sans-serif" font-size="14" lengthAdjust="spacing" textLength="146" x="1720.5" y="55.9951">did_id : INTEGER [PK]</text><text fill="#000000" font-family="sans-serif" font-size="14" lengthAdjust="spacing" textLength="123" x="1720.5" y="72.292">did_no : NUMERIC</text><text fill="#000000" font-family="sans-serif" font-size="14" lengthAdjust="spacing" textLength="103" x="1720.5" y="88.5889">sip_id : sip [FK]</text><line style="stroke:#000000;stroke-width:0.5;" x1="1701.5" x2="1871.5" y1="95.8906" y2="95.8906"/></g><!--class location--><g id="elem_location"><rect codeLine="81" fill="#FFFFFF" height="178.375" id="location" rx="2.5" ry="2.5" style="stroke:#000000;stroke-width:0.5;" width="215" x="1083" y="181"/><ellipse cx="1159.25" cy="197" fill="#ADD1B2" rx="11" ry="11" style="stroke:#181818;stroke-width:1.0;"/><path d="M1163.3594,203 L1155.6406,203 L1155.6406,190.6094 L1163.3594,190.6094 L1163.3594,192.7656 L1158.0938,192.7656 L1158.0938,195.4375 L1162.8594,195.4375 L1162.8594,197.5938 L1158.0938,197.5938 L1158.0938,200.8438 L1163.3594,200.8438 L1163.3594,203 Z " fill="#000000"/><text fill="#000000" font-family="sans-serif" font-size="14" lengthAdjust="spacing" textLength="54" x="1179.75" y="201.8467">location</text><line style="stroke:#000000;stroke-width:0.5;" x1="1084" x2="1297" y1="213" y2="213"/><text fill="#000000" font-family="sans-serif" font-size="14" lengthAdjust="spacing" textLength="56" x="1103" y="229.9951">address</text><text fill="#000000" font-family="sans-serif" font-size="14" lengthAdjust="spacing" textLength="88" x="1103" y="246.292">address_two</text><text fill="#000000" font-family="sans-serif" font-size="14" lengthAdjust="spacing" textLength="23" x="1103" y="262.5889">city</text><text fill="#000000" font-family="sans-serif" font-size="14" lengthAdjust="spacing" textLength="35" x="1103" y="278.8857">state</text><text fill="#000000" font-family="sans-serif" font-size="14" lengthAdjust="spacing" textLength="51" x="1103" y="295.1826">latitude</text><text fill="#000000" font-family="sans-serif" font-size="14" lengthAdjust="spacing" textLength="65" x="1103" y="311.4795">longitude</text><ellipse cx="1094" cy="324.4297" fill="none" rx="3" ry="3" style="stroke:#038048;stroke-width:1.0;"/><text fill="#000000" font-family="sans-serif" font-size="14" lengthAdjust="spacing" textLength="179" x="1103" y="327.7764">location_id : INTEGER [PK]</text><text fill="#000000" font-family="sans-serif" font-size="14" lengthAdjust="spacing" textLength="189" x="1103" y="344.0732">company_id : company [FK]</text><line style="stroke:#000000;stroke-width:0.5;" x1="1084" x2="1297" y1="351.375" y2="351.375"/></g><!--class manufacturer--><g id="elem_manufacturer"><rect codeLine="92" fill="#FFFFFF" height="80.5938" id="manufacturer" rx="2.5" ry="2.5" style="stroke:#000000;stroke-width:0.5;" width="243" x="1333" y="229.5"/><ellipse cx="1404.25" cy="245.5" fill="#ADD1B2" rx="11" ry="11" style="stroke:#181818;stroke-width:1.0;"/><path d="M1408.3594,251.5 L1400.6406,251.5 L1400.6406,239.1094 L1408.3594,239.1094 L1408.3594,241.2656 L1403.0938,241.2656 L1403.0938,243.9375 L1407.8594,243.9375 L1407.8594,246.0938 L1403.0938,246.0938 L1403.0938,249.3438 L1408.3594,249.3438 L1408.3594,251.5 Z " fill="#000000"/><text fill="#000000" font-family="sans-serif" font-size="14" lengthAdjust="spacing" textLength="92" x="1424.75" y="250.3467">manufacturer</text><line style="stroke:#000000;stroke-width:0.5;" x1="1334" x2="1575" y1="261.5" y2="261.5"/><ellipse cx="1344" cy="275.1484" fill="none" rx="3" ry="3" style="stroke:#038048;stroke-width:1.0;"/><text fill="#000000" font-family="sans-serif" font-size="14" lengthAdjust="spacing" textLength="217" x="1353" y="278.4951">manufacturer_id : INTEGER [PK]</text><text fill="#000000" font-family="sans-serif" font-size="14" lengthAdjust="spacing" textLength="88" x="1353" y="294.792">name : TEXT</text><line style="stroke:#000000;stroke-width:0.5;" x1="1334" x2="1575" y1="302.0938" y2="302.0938"/></g><!--class model--><g id="elem_model"><rect codeLine="97" fill="#FFFFFF" height="64.2969" id="model" rx="2.5" ry="2.5" style="stroke:#000000;stroke-width:0.5;" width="194" x="1611.5" y="238"/><ellipse cx="1682.75" cy="254" fill="#ADD1B2" rx="11" ry="11" style="stroke:#181818;stroke-width:1.0;"/><path d="M1686.8594,260 L1679.1406,260 L1679.1406,247.6094 L1686.8594,247.6094 L1686.8594,249.7656 L1681.5938,249.7656 L1681.5938,252.4375 L1686.3594,252.4375 L1686.3594,254.5938 L1681.5938,254.5938 L1681.5938,257.8438 L1686.8594,257.8438 L1686.8594,260 Z " fill="#000000"/><text fill="#000000" font-family="sans-serif" font-size="14" lengthAdjust="spacing" textLength="43" x="1703.25" y="258.8467">model</text><line style="stroke:#000000;stroke-width:0.5;" x1="1612.5" x2="1804.5" y1="270" y2="270"/><ellipse cx="1622.5" cy="283.6484" fill="none" rx="3" ry="3" style="stroke:#038048;stroke-width:1.0;"/><text fill="#000000" font-family="sans-serif" font-size="14" lengthAdjust="spacing" textLength="168" x="1631.5" y="286.9951">model_id : INTEGER [PK]</text><line style="stroke:#000000;stroke-width:0.5;" x1="1612.5" x2="1804.5" y1="294.2969" y2="294.2969"/></g><!--class person--><g id="elem_person"><rect codeLine="101" fill="#FFFFFF" height="96.8906" id="person" rx="2.5" ry="2.5" style="stroke:#000000;stroke-width:0.5;" width="215" x="1841" y="221.5"/><ellipse cx="1919.75" cy="237.5" fill="#ADD1B2" rx="11" ry="11" style="stroke:#181818;stroke-width:1.0;"/><path d="M1923.8594,243.5 L1916.1406,243.5 L1916.1406,231.1094 L1923.8594,231.1094 L1923.8594,233.2656 L1918.5938,233.2656 L1918.5938,235.9375 L1923.3594,235.9375 L1923.3594,238.0938 L1918.5938,238.0938 L1918.5938,241.3438 L1923.8594,241.3438 L1923.8594,243.5 Z " fill="#000000"/><text fill="#000000" font-family="sans-serif" font-size="14" lengthAdjust="spacing" textLength="49" x="1940.25" y="242.3467">person</text><line style="stroke:#000000;stroke-width:0.5;" x1="1842" x2="2055" y1="253.5" y2="253.5"/><ellipse cx="1852" cy="267.1484" fill="none" rx="3" ry="3" style="stroke:#038048;stroke-width:1.0;"/><text fill="#000000" font-family="sans-serif" font-size="14" lengthAdjust="spacing" textLength="174" x="1861" y="270.4951">person_id : INTEGER [PK]</text><text fill="#000000" font-family="sans-serif" font-size="14" lengthAdjust="spacing" textLength="189" x="1861" y="286.792">company_id : company [FK]</text><text fill="#000000" font-family="sans-serif" font-size="14" lengthAdjust="spacing" textLength="171" x="1861" y="303.0889">location_id : location [FK]</text><line style="stroke:#000000;stroke-width:0.5;" x1="1842" x2="2055" y1="310.3906" y2="310.3906"/></g><!--class phone--><g id="elem_phone"><rect codeLine="107" fill="#FFFFFF" height="145.7813" id="phone" rx="2.5" ry="2.5" style="stroke:#000000;stroke-width:0.5;" width="273" x="2091" y="197"/><ellipse cx="2200.75" cy="213" fill="#ADD1B2" rx="11" ry="11" style="stroke:#181818;stroke-width:1.0;"/><path d="M2204.8594,219 L2197.1406,219 L2197.1406,206.6094 L2204.8594,206.6094 L2204.8594,208.7656 L2199.5938,208.7656 L2199.5938,211.4375 L2204.3594,211.4375 L2204.3594,213.5938 L2199.5938,213.5938 L2199.5938,216.8438 L2204.8594,216.8438 L2204.8594,219 Z " fill="#000000"/><text fill="#000000" font-family="sans-serif" font-size="14" lengthAdjust="spacing" textLength="45" x="2221.25" y="217.8467">phone</text><line style="stroke:#000000;stroke-width:0.5;" x1="2092" x2="2363" y1="229" y2="229"/><ellipse cx="2102" cy="242.6484" fill="none" rx="3" ry="3" style="stroke:#038048;stroke-width:1.0;"/><text fill="#000000" font-family="sans-serif" font-size="14" lengthAdjust="spacing" textLength="170" x="2111" y="245.9951">phone_id : INTEGER [PK]</text><text fill="#000000" font-family="sans-serif" font-size="14" lengthAdjust="spacing" textLength="131" x="2111" y="262.292">number : NUMERIC</text><text fill="#000000" font-family="sans-serif" font-size="14" lengthAdjust="spacing" textLength="73" x="2111" y="278.5889">sim : TEXT</text><text fill="#000000" font-family="sans-serif" font-size="14" lengthAdjust="spacing" textLength="149" x="2111" y="294.8857">model_id : model [FK]</text><text fill="#000000" font-family="sans-serif" font-size="14" lengthAdjust="spacing" textLength="247" x="2111" y="311.1826">manufacturer_id : manufacturer [FK]</text><text fill="#000000" font-family="sans-serif" font-size="14" lengthAdjust="spacing" textLength="103" x="2111" y="327.4795">sip_id : sip [FK]</text><line style="stroke:#000000;stroke-width:0.5;" x1="2092" x2="2363" y1="334.7813" y2="334.7813"/></g><!--class serial--><g id="elem_serial"><rect codeLine="116" fill="#FFFFFF" height="80.5938" id="serial" rx="2.5" ry="2.5" style="stroke:#000000;stroke-width:0.5;" width="187" x="2399" y="229.5"/><ellipse cx="2470.25" cy="245.5" fill="#ADD1B2" rx="11" ry="11" style="stroke:#181818;stroke-width:1.0;"/><path d="M2474.3594,251.5 L2466.6406,251.5 L2466.6406,239.1094 L2474.3594,239.1094 L2474.3594,241.2656 L2469.0938,241.2656 L2469.0938,243.9375 L2473.8594,243.9375 L2473.8594,246.0938 L2469.0938,246.0938 L2469.0938,249.3438 L2474.3594,249.3438 L2474.3594,251.5 Z " fill="#000000"/><text fill="#000000" font-family="sans-serif" font-size="14" lengthAdjust="spacing" textLength="36" x="2490.75" y="250.3467">serial</text><line style="stroke:#000000;stroke-width:0.5;" x1="2400" x2="2585" y1="261.5" y2="261.5"/><ellipse cx="2410" cy="275.1484" fill="none" rx="3" ry="3" style="stroke:#038048;stroke-width:1.0;"/><text fill="#000000" font-family="sans-serif" font-size="14" lengthAdjust="spacing" textLength="161" x="2419" y="278.4951">serial_id : INTEGER [PK]</text><text fill="#000000" font-family="sans-serif" font-size="14" lengthAdjust="spacing" textLength="110" x="2419" y="294.792">serial_no : TEXT</text><line style="stroke:#000000;stroke-width:0.5;" x1="2400" x2="2585" y1="302.0938" y2="302.0938"/></g><!--class sip--><g id="elem_sip"><rect codeLine="121" fill="#FFFFFF" height="96.8906" id="sip" rx="2.5" ry="2.5" style="stroke:#000000;stroke-width:0.5;" width="171" x="2621" y="221.5"/><ellipse cx="2692.25" cy="237.5" fill="#ADD1B2" rx="11" ry="11" style="stroke:#181818;stroke-width:1.0;"/><path d="M2696.3594,243.5 L2688.6406,243.5 L2688.6406,231.1094 L2696.3594,231.1094 L2696.3594,233.2656 L2691.0938,233.2656 L2691.0938,235.9375 L2695.8594,235.9375 L2695.8594,238.0938 L2691.0938,238.0938 L2691.0938,241.3438 L2696.3594,241.3438 L2696.3594,243.5 Z " fill="#000000"/><text fill="#000000" font-family="sans-serif" font-size="14" lengthAdjust="spacing" textLength="20" x="2712.75" y="242.3467">sip</text><line style="stroke:#000000;stroke-width:0.5;" x1="2622" x2="2791" y1="253.5" y2="253.5"/><ellipse cx="2632" cy="267.1484" fill="none" rx="3" ry="3" style="stroke:#038048;stroke-width:1.0;"/><text fill="#000000" font-family="sans-serif" font-size="14" lengthAdjust="spacing" textLength="145" x="2641" y="270.4951">sip_id : INTEGER [PK]</text><text fill="#000000" font-family="sans-serif" font-size="14" lengthAdjust="spacing" textLength="122" x="2641" y="286.792">sip_no : NUMERIC</text><text fill="#000000" font-family="sans-serif" font-size="14" lengthAdjust="spacing" textLength="117" x="2641" y="303.0889">"" : company [FK]</text><line style="stroke:#000000;stroke-width:0.5;" x1="2622" x2="2791" y1="310.3906" y2="310.3906"/></g><!--class warranty--><g id="elem_warranty"><rect codeLine="127" fill="#FFFFFF" height="96.8906" id="warranty" rx="2.5" ry="2.5" style="stroke:#000000;stroke-width:0.5;" width="209" x="2827" y="221.5"/><ellipse cx="2898.25" cy="237.5" fill="#ADD1B2" rx="11" ry="11" style="stroke:#181818;stroke-width:1.0;"/><path d="M2902.3594,243.5 L2894.6406,243.5 L2894.6406,231.1094 L2902.3594,231.1094 L2902.3594,233.2656 L2897.0938,233.2656 L2897.0938,235.9375 L2901.8594,235.9375 L2901.8594,238.0938 L2897.0938,238.0938 L2897.0938,241.3438 L2902.3594,241.3438 L2902.3594,243.5 Z " fill="#000000"/><text fill="#000000" font-family="sans-serif" font-size="14" lengthAdjust="spacing" textLength="58" x="2918.75" y="242.3467">warranty</text><line style="stroke:#000000;stroke-width:0.5;" x1="2828" x2="3035" y1="253.5" y2="253.5"/><ellipse cx="2838" cy="267.1484" fill="none" rx="3" ry="3" style="stroke:#038048;stroke-width:1.0;"/><text fill="#000000" font-family="sans-serif" font-size="14" lengthAdjust="spacing" textLength="183" x="2847" y="270.4951">warranty_id : INTEGER [PK]</text><text fill="#000000" font-family="sans-serif" font-size="14" lengthAdjust="spacing" textLength="146" x="2847" y="286.792">start_date : NUMERIC</text><text fill="#000000" font-family="sans-serif" font-size="14" lengthAdjust="spacing" textLength="142" x="2847" y="303.0889">end_date : NUMERIC</text><line style="stroke:#000000;stroke-width:0.5;" x1="2828" x2="3035" y1="310.3906" y2="310.3906"/></g><!--link association to category_list--><g id="link_association_category_list"><path codeLine="133" d="M1167.53,59.38 C943.06,66.06 463.37,85.84 406.5,134 C383.77,153.25 374.81,185.16 371.62,213.13 " fill="none" id="association-category_list" style="stroke:#000000;stroke-width:1.0;"/><text fill="#000000" font-family="sans-serif" font-size="13" lengthAdjust="spacing" textLength="60" x="407.5" y="147.0669">1" -- "0..1</text><text fill="#000000" font-family="sans-serif" font-size="13" lengthAdjust="spacing" textLength="56" x="1104.1581" y="56.2741">category</text></g><!--link association to category_list--><g id="link_association_category_list"><path codeLine="139" d="M1167.71,62.19 C994.81,71.91 676.39,94.58 569.5,134 C520.71,152 472.36,184.6 435.65,213.26 " fill="none" id="association-category_list-1" style="stroke:#000000;stroke-width:1.0;"/><text fill="#000000" font-family="sans-serif" font-size="13" lengthAdjust="spacing" textLength="44" x="570.5" y="147.0669">1" -- "1</text><text fill="#000000" font-family="sans-serif" font-size="13" lengthAdjust="spacing" textLength="41" x="1118.8885" y="75.0928">device</text></g><!--link association to category--><g id="link_association_category"><path codeLine="134" d="M1167.96,58.25 C902.64,63.19 262.31,80.56 181.5,134 C148.79,155.63 130.78,197.82 121.44,229.3 " fill="none" id="association-category" style="stroke:#000000;stroke-width:1.0;"/><text fill="#000000" font-family="sans-serif" font-size="13" lengthAdjust="spacing" textLength="44" x="182.5" y="147.0669">1" -- "1</text><text fill="#000000" font-family="sans-serif" font-size="13" lengthAdjust="spacing" textLength="81" x="1078.9658" y="55.0859">category_list</text></g><!--link association to category--><g id="link_association_category"><path codeLine="143" d="M1167.5,59.93 C948.32,67.44 478.76,88.41 323.5,134 C260.28,152.56 197.99,196.43 157.67,229.16 " fill="none" id="association-category-1" style="stroke:#000000;stroke-width:1.0;"/><text fill="#000000" font-family="sans-serif" font-size="13" lengthAdjust="spacing" textLength="59" x="324.5" y="147.0669">1" -- "0..*</text><text fill="#000000" font-family="sans-serif" font-size="13" lengthAdjust="spacing" textLength="76" x="1084.0891" y="72.5878">device_type</text></g><!--link association to company--><g id="link_association_company"><path codeLine="135" d="M1167.57,62.05 C990.43,71.79 667.35,94.75 632.5,134 C621.06,146.88 616.19,163.5 615.06,180.64 " fill="none" id="association-company" style="stroke:#000000;stroke-width:1.0;"/><text fill="#000000" font-family="sans-serif" font-size="13" lengthAdjust="spacing" textLength="60" x="633.5" y="147.0669">0..1" -- "1</text><text fill="#000000" font-family="sans-serif" font-size="13" lengthAdjust="spacing" textLength="59" x="1100.2939" y="58.581">company</text></g><!--link association to company--><g id="link_association_company"><path codeLine="145" d="M1167.58,64.27 C1034.31,74.85 824.01,96.85 754.5,134 C732.77,145.61 712.95,162.68 695.91,180.81 " fill="none" id="association-company-1" style="stroke:#000000;stroke-width:1.0;"/><text fill="#000000" font-family="sans-serif" font-size="13" lengthAdjust="spacing" textLength="60" x="755.5" y="147.0669">1" -- "0..1</text><text fill="#000000" font-family="sans-serif" font-size="13" lengthAdjust="spacing" textLength="50" x="1110.256" y="86.8808">location</text></g><!--link association to company--><g id="link_association_company"><path codeLine="150" d="M1167.59,67.45 C1057.31,81.63 888.62,113.11 757.5,181 C751.61,184.05 745.67,187.34 739.76,190.81 " fill="none" id="association-company-2" style="stroke:#000000;stroke-width:1.0;"/><text fill="#000000" font-family="sans-serif" font-size="13" lengthAdjust="spacing" textLength="60" x="867.5" y="147.0669">1" -- "0..1</text><text fill="#000000" font-family="sans-serif" font-size="13" lengthAdjust="spacing" textLength="18" x="1142.0392" y="80.7186">sip</text></g><!--link association to location--><g id="link_association_location"><path codeLine="136" d="M1210.09,96.38 C1197.34,106.87 1185.82,119.41 1178.5,134 C1171.32,148.3 1168.8,164.53 1168.98,180.65 " fill="none" id="association-location" style="stroke:#000000;stroke-width:1.0;"/><text fill="#000000" font-family="sans-serif" font-size="13" lengthAdjust="spacing" textLength="59" x="1179.5" y="147.0669">1" -- "0..*</text><text fill="#000000" font-family="sans-serif" font-size="13" lengthAdjust="spacing" textLength="59" x="1203.7876" y="115.5923">company</text></g><!--link association to location--><g id="link_association_location"><path codeLine="142" d="M1266.45,96.16 C1259.51,113.1 1251.22,133.07 1243.5,151 C1239.37,160.59 1234.99,170.59 1230.59,180.53 " fill="none" id="association-location-1" style="stroke:#000000;stroke-width:1.0;"/><text fill="#000000" font-family="sans-serif" font-size="13" lengthAdjust="spacing" textLength="44" x="1251.5" y="147.0669">1" -- "1</text><text fill="#000000" font-family="sans-serif" font-size="13" lengthAdjust="spacing" textLength="41" x="1267.1314" y="115.6427">device</text></g><!--link association to model--><g id="link_association_model"><path codeLine="137" d="M1391.26,96.39 C1465.88,124.45 1557.65,160.52 1593.5,181 C1621.77,197.15 1650.86,219.48 1672.72,237.6 " fill="none" id="association-model" style="stroke:#000000;stroke-width:1.0;"/><text fill="#000000" font-family="sans-serif" font-size="13" lengthAdjust="spacing" textLength="44" x="1530.5" y="147.0669">1" -- "1</text><text fill="#000000" font-family="sans-serif" font-size="13" lengthAdjust="spacing" textLength="41" x="1382.793" y="103.9958">device</text></g><!--link association to manufacturer--><g id="link_association_manufacturer"><path codeLine="138" d="M1314.85,96.47 C1345.6,134.46 1391.59,191.28 1422.29,229.21 " fill="none" id="association-manufacturer" style="stroke:#000000;stroke-width:1.0;"/><text fill="#000000" font-family="sans-serif" font-size="13" lengthAdjust="spacing" textLength="44" x="1359.5" y="147.0669">1" -- "1</text><text fill="#000000" font-family="sans-serif" font-size="13" lengthAdjust="spacing" textLength="41" x="1322.6123" y="115.6955">device</text></g><!--link association to manufacturer--><g id="link_association_manufacturer"><path codeLine="147" d="M1369.96,96.47 C1385.81,106.86 1400.95,119.35 1412.5,134 C1434.15,161.47 1444.71,200.19 1449.82,229.12 " fill="none" id="association-manufacturer-1" style="stroke:#000000;stroke-width:1.0;"/><text fill="#000000" font-family="sans-serif" font-size="13" lengthAdjust="spacing" textLength="44" x="1424.5" y="147.0669">1" -- "1</text><text fill="#000000" font-family="sans-serif" font-size="13" lengthAdjust="spacing" textLength="40" x="1384.1818" y="116.3053">model</text></g><!--link association to serial--><g id="link_association_serial"><path codeLine="140" d="M1383.97,96.4 C1394.17,99.39 1404.47,102.01 1414.5,104 C1625.93,146.03 2183.45,95.88 2381.5,181 C2407.82,192.31 2433.17,211.55 2452.99,229.16 " fill="none" id="association-serial" style="stroke:#000000;stroke-width:1.0;"/><text fill="#000000" font-family="sans-serif" font-size="13" lengthAdjust="spacing" textLength="44" x="2263.5" y="147.0669">1" -- "1</text><text fill="#000000" font-family="sans-serif" font-size="13" lengthAdjust="spacing" textLength="41" x="1383.0633" y="121.5301">device</text></g><!--link association to warranty--><g id="link_association_warranty"><path codeLine="141" d="M1383.2,96.44 C1393.64,99.46 1404.21,102.08 1414.5,104 C1692.01,155.79 2407.37,80.23 2684.5,134 C2742.77,145.3 2757.19,152.95 2809.5,181 C2830.79,192.42 2852.62,207.07 2871.82,221.14 " fill="none" id="association-warranty" style="stroke:#000000;stroke-width:1.0;"/><text fill="#000000" font-family="sans-serif" font-size="13" lengthAdjust="spacing" textLength="44" x="2748.5" y="147.0669">1" -- "1</text><text fill="#000000" font-family="sans-serif" font-size="13" lengthAdjust="spacing" textLength="41" x="1382.8417" y="106.559">device</text></g><!--link association to sip--><g id="link_association_sip"><path codeLine="144" d="M1383.58,96.44 C1393.91,99.44 1404.33,102.05 1414.5,104 C1611.47,141.75 2116.9,114.42 2316.5,134 C2445.14,146.62 2486.27,126.57 2603.5,181 C2624.51,190.76 2644.6,206.03 2661.37,221.14 " fill="none" id="association-sip" style="stroke:#000000;stroke-width:1.0;"/><text fill="#000000" font-family="sans-serif" font-size="13" lengthAdjust="spacing" textLength="60" x="2520.5" y="147.0669">1" -- "0..1</text><text fill="#000000" font-family="sans-serif" font-size="13" lengthAdjust="spacing" textLength="19" x="1383.4785" y="115.6611">did</text></g><!--link association to sip--><g id="link_association_sip"><path codeLine="148" d="M1383.2,96.42 C1393.65,99.45 1404.21,102.07 1414.5,104 C1542.86,128.08 2471.4,78.24 2589.5,134 C2628.2,152.27 2659.18,190.08 2679.51,221.04 " fill="none" id="association-sip-1" style="stroke:#000000;stroke-width:1.0;"/><text fill="#000000" font-family="sans-serif" font-size="13" lengthAdjust="spacing" textLength="60" x="2615.5" y="147.0669">1" -- "0..1</text><text fill="#000000" font-family="sans-serif" font-size="13" lengthAdjust="spacing" textLength="40" x="1384.0278" y="117.8137">phone</text></g><!--link association to phone--><g id="link_association_phone"><path codeLine="146" d="M1384.73,96.46 C1394.69,99.39 1404.72,101.98 1414.5,104 C1703.29,163.62 1800.93,68.49 2073.5,181 C2084.74,185.64 2096.18,190.94 2107.49,196.6 " fill="none" id="association-phone" style="stroke:#000000;stroke-width:1.0;"/><text fill="#000000" font-family="sans-serif" font-size="13" lengthAdjust="spacing" textLength="59" x="1983.5" y="147.0669">1" -- "0..*</text><text fill="#000000" font-family="sans-serif" font-size="13" lengthAdjust="spacing" textLength="40" x="1384.2579" y="122.3393">model</text></g><!--link association to device--><g id="link_association_device"><path codeLine="149" d="M1167.73,61.47 C1104.31,69.63 1027.64,89.04 973.5,134 C958.62,146.36 947.14,163.06 938.34,180.5 " fill="none" id="association-device" style="stroke:#000000;stroke-width:1.0;"/><text fill="#000000" font-family="sans-serif" font-size="13" lengthAdjust="spacing" textLength="59" x="974.5" y="147.0669">1" -- "0..*</text><text fill="#000000" font-family="sans-serif" font-size="13" lengthAdjust="spacing" textLength="34" x="1126.112" y="58.464">serial</text></g><!--link association to device--><g id="link_association_device"><path codeLine="151" d="M1180.41,96.43 C1154.8,107.6 1127.73,120.43 1103.5,134 C1078.7,147.89 1053.17,164.24 1029.13,180.66 " fill="none" id="association-device-1" style="stroke:#000000;stroke-width:1.0;"/><text fill="#000000" font-family="sans-serif" font-size="13" lengthAdjust="spacing" textLength="59" x="1104.5" y="147.0669">1" -- "0..*</text><text fill="#000000" font-family="sans-serif" font-size="13" lengthAdjust="spacing" textLength="55" x="1106.3765" y="115.6496">warranty</text></g><!--link association to person--><g id="link_association_person"><path codeLine="152" d="M1388.63,96.44 C1397.33,99.18 1406.03,101.74 1414.5,104 C1592.81,151.54 1652.67,108.81 1822.5,181 C1846.32,191.12 1870.18,206.21 1890.63,221.04 " fill="none" id="association-person" style="stroke:#000000;stroke-width:1.0;"/><text fill="#000000" font-family="sans-serif" font-size="13" lengthAdjust="spacing" textLength="59" x="1733.5" y="147.0669">1" -- "0..*</text><text fill="#000000" font-family="sans-serif" font-size="13" lengthAdjust="spacing" textLength="59" x="1385.5936" y="123.8101">company</text></g><!--link association to person--><g id="link_association_person"><path codeLine="153" d="M1385.13,96.41 C1394.96,99.33 1404.86,101.93 1414.5,104 C1498.84,122.1 1722.4,99.61 1801.5,134 C1845.19,153 1884.36,190.53 1911.25,221.21 " fill="none" id="association-person-1" style="stroke:#000000;stroke-width:1.0;"/><text fill="#000000" font-family="sans-serif" font-size="13" lengthAdjust="spacing" textLength="59" x="1831.5" y="147.0669">1" -- "0..*</text><text fill="#000000" font-family="sans-serif" font-size="13" lengthAdjust="spacing" textLength="50" x="1346.5319" y="115.6267">location</text></g><!--SRC=[hLLRJzim57xlhyZwE0GQqvvuQrc0QbsBGYQseIaoYMajKhjot5NLjFy-nvVaE8v34SjJZi_b-yxDVbVW9q9nb4wcypYRBfFFSP9TBkVB99gMA7yUlNCCRk99Qp0dgxMuvkZGCKgMzyRYVaq4xWznjLoasTtiPnoTV-hn1-gFZJfUfBFqHvR4yqawMoxkRcQtsNosY7i96-C-8aw0K2wEqIHfaz8me-gPq2tYQ1Fb9QggwCyeajzKwbQSxMXnoKh67HRQWF42SwtqYwvC9foplRO8aHZzXGGm5KGS_YE3AqQ5Dj39EcWSbqWGHgirsGOm_GA_0TbaDvP5PZbHqEC8LH6G3OqJU9QH8hg8PeiqlewJwE7soozb8mvRBC_J-7iAW-T8u1NZ1nNP2arOUn28sTY7usObgOGJN9tu2FLf06Q329Nd3Th3bL5KE6Uqw5M9DU6-1X9acosY9c_zRqXHj6agLSjOufVmOBjc55l-sZN0_75NoPMgggmIY0jfiVZsDKvcbwuIgnoWAcSPsrEi4Z3ScioiBXDx1jn0QWN-JNAiCjE_JRMr62epAt2fTUgtXTmWkdj2kTXnp8q1E07K_6QwNGUTumGPCFtVwhhrtoFE4HMcnbPgxKkMWy6tajTmatkz1w0qIkxMfpvxOUIbMiamYhy51IaqbWpMO90Y4BlMKDOPXOfiJPdahTFDoIQhG9hCDH8g2Ywd2_xN8wEpaDuwkf3vw2fANx4hZC3egfLEEYNsYmANm1bOm1MEZEBhp92jZZzg7XgS3nY_dbaTM4rl4x4TQoSKSDrYNfaYwj_6MOklJliLOwak4mrT_xN8jHIgm6xpA6lM7PGDt9gtR_FWvEcbLRpD_bhYSBKzvaQffhpRG0cZupNFwqdBmOyaDTwoZCS30sXl3WNIN2CMoRrbVBZw0iyAkIqTI7bvTuyb9doZmHjxUkgzZ1VH-5mhFfoTdO_xFOqjT8UUdfjzsvI35IuCnCikxRNYi7lVyR7lJAqssnVcv1WxLy5nFi6o3JdPAJtEkXsGu-pxojHlRrwTKF_wQbk_72g5UYi6XwIbqMrtsCUqgzQQ2sYG3J0_jdScx74fs3xLQblXGK8gvF7fjfqz6i5P2Fj037guVGYv_0C0]--></g></svg>